<svg xmlns="http://www.w3.org/2000/svg" version="1.1" xmlns:xlink="http://www.w3.org/1999/xlink" width="512" height="512"><svg xmlns="http://www.w3.org/2000/svg" width="512" height="512" viewBox="0 0 24 24" fill="white" stroke="black" stroke-width="2" stroke-linecap="round" stroke-linejoin="round" class="icon icon-tabler icons-tabler-outline icon-tabler-moneybag"><path stroke="none" d="M0 0h24v24H0z" fill="none"></path><path d="M9.5 3h5a1.5 1.5 0 0 1 1.5 1.5a3.5 3.5 0 0 1 -3.5 3.5h-1a3.5 3.5 0 0 1 -3.5 -3.5a1.5 1.5 0 0 1 1.5 -1.5"></path><path d="M4 17v-1a8 8 0 1 1 16 0v1a4 4 0 0 1 -4 4h-8a4 4 0 0 1 -4 -4"></path></svg><style>@media (prefers-color-scheme: light) { :root { filter: none; } }
@media (prefers-color-scheme: dark) { :root { filter: invert(100%); } }
</style></svg>